<mxfile host="Electron" modified="2025-04-15T21:44:27.025Z" agent="Mozilla/5.0 (Windows NT 10.0; Win64; x64) AppleWebKit/537.36 (KHTML, like Gecko) draw.io/21.6.1 Chrome/112.0.5615.204 Electron/24.6.1 Safari/537.36" etag="Y7w1PNZ4grb8tTb8bVV7" version="21.6.1" type="device">
  <diagram name="Page-1" id="TrKvJ77jm1XfpAUrpjP0">
    <mxGraphModel dx="1674" dy="836" grid="1" gridSize="10" guides="1" tooltips="1" connect="1" arrows="1" fold="1" page="1" pageScale="1" pageWidth="850" pageHeight="1100" math="0" shadow="0">
      <root>
        <mxCell id="0" />
        <mxCell id="1" parent="0" />
        <mxCell id="3s5oEH6HWSz2IYVChx12-1" value="" style="rounded=0;whiteSpace=wrap;html=1;" parent="1" vertex="1">
          <mxGeometry x="220" y="120" width="190" height="610" as="geometry" />
        </mxCell>
        <mxCell id="3s5oEH6HWSz2IYVChx12-3" value="0x80B000" style="text;html=1;strokeColor=none;fillColor=none;align=center;verticalAlign=middle;whiteSpace=wrap;rounded=0;" parent="1" vertex="1">
          <mxGeometry x="450" y="90" width="60" height="30" as="geometry" />
        </mxCell>
        <mxCell id="3s5oEH6HWSz2IYVChx12-4" value="" style="rounded=0;whiteSpace=wrap;html=1;" parent="1" vertex="1">
          <mxGeometry x="230" y="160" width="170" height="230" as="geometry" />
        </mxCell>
        <mxCell id="3s5oEH6HWSz2IYVChx12-5" value="Type[0]" style="rounded=0;whiteSpace=wrap;html=1;" parent="1" vertex="1">
          <mxGeometry x="310" y="170" width="70" height="20" as="geometry" />
        </mxCell>
        <mxCell id="3s5oEH6HWSz2IYVChx12-6" value="Length[0]" style="rounded=0;whiteSpace=wrap;html=1;" parent="1" vertex="1">
          <mxGeometry x="310" y="190" width="70" height="20" as="geometry" />
        </mxCell>
        <mxCell id="3s5oEH6HWSz2IYVChx12-7" value="Value[0]" style="rounded=0;whiteSpace=wrap;html=1;" parent="1" vertex="1">
          <mxGeometry x="310" y="210" width="70" height="20" as="geometry" />
        </mxCell>
        <mxCell id="3s5oEH6HWSz2IYVChx12-8" value="Type[1]" style="rounded=0;whiteSpace=wrap;html=1;" parent="1" vertex="1">
          <mxGeometry x="310" y="230" width="70" height="20" as="geometry" />
        </mxCell>
        <mxCell id="3s5oEH6HWSz2IYVChx12-9" value="Length[1]" style="rounded=0;whiteSpace=wrap;html=1;" parent="1" vertex="1">
          <mxGeometry x="310" y="250" width="70" height="20" as="geometry" />
        </mxCell>
        <mxCell id="3s5oEH6HWSz2IYVChx12-10" value="Value[1]" style="rounded=0;whiteSpace=wrap;html=1;" parent="1" vertex="1">
          <mxGeometry x="310" y="270" width="70" height="20" as="geometry" />
        </mxCell>
        <mxCell id="3s5oEH6HWSz2IYVChx12-11" value="Type[n]" style="rounded=0;whiteSpace=wrap;html=1;" parent="1" vertex="1">
          <mxGeometry x="310" y="310" width="70" height="20" as="geometry" />
        </mxCell>
        <mxCell id="3s5oEH6HWSz2IYVChx12-12" value="Length[n]" style="rounded=0;whiteSpace=wrap;html=1;" parent="1" vertex="1">
          <mxGeometry x="310" y="330" width="70" height="20" as="geometry" />
        </mxCell>
        <mxCell id="3s5oEH6HWSz2IYVChx12-13" value="Value[n]" style="rounded=0;whiteSpace=wrap;html=1;" parent="1" vertex="1">
          <mxGeometry x="310" y="350" width="70" height="20" as="geometry" />
        </mxCell>
        <mxCell id="3s5oEH6HWSz2IYVChx12-14" value="..." style="rounded=0;whiteSpace=wrap;html=1;" parent="1" vertex="1">
          <mxGeometry x="310" y="290" width="70" height="20" as="geometry" />
        </mxCell>
        <mxCell id="3s5oEH6HWSz2IYVChx12-15" value="Header Data" style="text;html=1;strokeColor=none;fillColor=none;align=center;verticalAlign=middle;whiteSpace=wrap;rounded=0;" parent="1" vertex="1">
          <mxGeometry x="230" y="160" width="80" height="30" as="geometry" />
        </mxCell>
        <mxCell id="3s5oEH6HWSz2IYVChx12-18" value="" style="endArrow=none;dashed=1;html=1;dashPattern=1 3;strokeWidth=2;rounded=0;entryX=0;entryY=0.5;entryDx=0;entryDy=0;exitX=1;exitY=0;exitDx=0;exitDy=0;" parent="1" source="3s5oEH6HWSz2IYVChx12-1" target="3s5oEH6HWSz2IYVChx12-3" edge="1">
          <mxGeometry width="50" height="50" relative="1" as="geometry">
            <mxPoint x="310" y="120" as="sourcePoint" />
            <mxPoint x="360" y="70" as="targetPoint" />
          </mxGeometry>
        </mxCell>
        <mxCell id="3s5oEH6HWSz2IYVChx12-19" value="" style="rounded=0;whiteSpace=wrap;html=1;" parent="1" vertex="1">
          <mxGeometry x="230" y="130" width="170" height="30" as="geometry" />
        </mxCell>
        <mxCell id="3s5oEH6HWSz2IYVChx12-2" value="Signature of the Header" style="text;html=1;strokeColor=none;fillColor=none;align=center;verticalAlign=middle;whiteSpace=wrap;rounded=0;" parent="1" vertex="1">
          <mxGeometry x="225" y="130" width="180" height="30" as="geometry" />
        </mxCell>
        <mxCell id="3s5oEH6HWSz2IYVChx12-20" value="0x80B060" style="text;html=1;strokeColor=none;fillColor=none;align=center;verticalAlign=middle;whiteSpace=wrap;rounded=0;" parent="1" vertex="1">
          <mxGeometry x="450" y="130" width="60" height="30" as="geometry" />
        </mxCell>
        <mxCell id="3s5oEH6HWSz2IYVChx12-21" value="" style="endArrow=none;dashed=1;html=1;dashPattern=1 3;strokeWidth=2;rounded=0;entryX=0;entryY=0.5;entryDx=0;entryDy=0;exitX=0.999;exitY=0.02;exitDx=0;exitDy=0;exitPerimeter=0;" parent="1" source="3s5oEH6HWSz2IYVChx12-4" target="3s5oEH6HWSz2IYVChx12-20" edge="1">
          <mxGeometry width="50" height="50" relative="1" as="geometry">
            <mxPoint x="410" y="280" as="sourcePoint" />
            <mxPoint x="460" y="230" as="targetPoint" />
          </mxGeometry>
        </mxCell>
        <mxCell id="3s5oEH6HWSz2IYVChx12-22" value="" style="rounded=0;whiteSpace=wrap;html=1;" parent="1" vertex="1">
          <mxGeometry x="230" y="390" width="170" height="50" as="geometry" />
        </mxCell>
        <mxCell id="3s5oEH6HWSz2IYVChx12-23" value="Extra unused header space - padded with 0x00" style="text;html=1;strokeColor=none;fillColor=none;align=center;verticalAlign=middle;whiteSpace=wrap;rounded=0;" parent="1" vertex="1">
          <mxGeometry x="235" y="400" width="160" height="30" as="geometry" />
        </mxCell>
        <mxCell id="3s5oEH6HWSz2IYVChx12-24" value="Code" style="rounded=0;whiteSpace=wrap;html=1;" parent="1" vertex="1">
          <mxGeometry x="230" y="580" width="170" height="140" as="geometry" />
        </mxCell>
        <mxCell id="3s5oEH6HWSz2IYVChx12-25" value="" style="rounded=0;whiteSpace=wrap;html=1;" parent="1" vertex="1">
          <mxGeometry x="230" y="440" width="170" height="140" as="geometry" />
        </mxCell>
        <mxCell id="3s5oEH6HWSz2IYVChx12-26" value="Reset" style="rounded=0;whiteSpace=wrap;html=1;" parent="1" vertex="1">
          <mxGeometry x="310" y="450" width="70" height="20" as="geometry" />
        </mxCell>
        <mxCell id="3s5oEH6HWSz2IYVChx12-27" value="Interrupt[0]" style="rounded=0;whiteSpace=wrap;html=1;" parent="1" vertex="1">
          <mxGeometry x="310" y="470" width="70" height="20" as="geometry" />
        </mxCell>
        <mxCell id="3s5oEH6HWSz2IYVChx12-28" value="Interrupt[1]" style="rounded=0;whiteSpace=wrap;html=1;" parent="1" vertex="1">
          <mxGeometry x="310" y="490" width="70" height="20" as="geometry" />
        </mxCell>
        <mxCell id="3s5oEH6HWSz2IYVChx12-29" value="Interrupt[3]" style="rounded=0;whiteSpace=wrap;html=1;" parent="1" vertex="1">
          <mxGeometry x="310" y="510" width="70" height="20" as="geometry" />
        </mxCell>
        <mxCell id="3s5oEH6HWSz2IYVChx12-30" value="..." style="rounded=0;whiteSpace=wrap;html=1;" parent="1" vertex="1">
          <mxGeometry x="310" y="530" width="70" height="20" as="geometry" />
        </mxCell>
        <mxCell id="3s5oEH6HWSz2IYVChx12-33" value="Interrupt[n]" style="rounded=0;whiteSpace=wrap;html=1;" parent="1" vertex="1">
          <mxGeometry x="310" y="550" width="70" height="20" as="geometry" />
        </mxCell>
        <mxCell id="3s5oEH6HWSz2IYVChx12-34" value="IVT" style="text;html=1;strokeColor=none;fillColor=none;align=center;verticalAlign=middle;whiteSpace=wrap;rounded=0;" parent="1" vertex="1">
          <mxGeometry x="230" y="440" width="60" height="30" as="geometry" />
        </mxCell>
        <mxCell id="3s5oEH6HWSz2IYVChx12-35" value="0x80B200" style="text;html=1;strokeColor=none;fillColor=none;align=center;verticalAlign=middle;whiteSpace=wrap;rounded=0;" parent="1" vertex="1">
          <mxGeometry x="450" y="410" width="60" height="30" as="geometry" />
        </mxCell>
        <mxCell id="3s5oEH6HWSz2IYVChx12-36" value="" style="endArrow=none;dashed=1;html=1;dashPattern=1 3;strokeWidth=2;rounded=0;entryX=0;entryY=0.5;entryDx=0;entryDy=0;exitX=0.955;exitY=0.004;exitDx=0;exitDy=0;exitPerimeter=0;" parent="1" source="3s5oEH6HWSz2IYVChx12-25" target="3s5oEH6HWSz2IYVChx12-35" edge="1">
          <mxGeometry width="50" height="50" relative="1" as="geometry">
            <mxPoint x="450" y="530" as="sourcePoint" />
            <mxPoint x="500" y="480" as="targetPoint" />
          </mxGeometry>
        </mxCell>
        <mxCell id="3s5oEH6HWSz2IYVChx12-37" value="0x80C200" style="text;html=1;strokeColor=none;fillColor=none;align=center;verticalAlign=middle;whiteSpace=wrap;rounded=0;" parent="1" vertex="1">
          <mxGeometry x="450" y="545" width="60" height="30" as="geometry" />
        </mxCell>
        <mxCell id="3s5oEH6HWSz2IYVChx12-38" value="" style="endArrow=none;dashed=1;html=1;dashPattern=1 3;strokeWidth=2;rounded=0;entryX=0;entryY=0.5;entryDx=0;entryDy=0;exitX=1;exitY=0;exitDx=0;exitDy=0;" parent="1" source="3s5oEH6HWSz2IYVChx12-24" target="3s5oEH6HWSz2IYVChx12-37" edge="1">
          <mxGeometry width="50" height="50" relative="1" as="geometry">
            <mxPoint x="410" y="660" as="sourcePoint" />
            <mxPoint x="460" y="610" as="targetPoint" />
          </mxGeometry>
        </mxCell>
        <mxCell id="3s5oEH6HWSz2IYVChx12-39" value="" style="shape=curlyBracket;whiteSpace=wrap;html=1;rounded=1;labelPosition=left;verticalLabelPosition=middle;align=right;verticalAlign=middle;" parent="1" vertex="1">
          <mxGeometry x="190" y="440" width="20" height="280" as="geometry" />
        </mxCell>
        <mxCell id="3s5oEH6HWSz2IYVChx12-40" value="Executable Image" style="text;html=1;strokeColor=none;fillColor=none;align=center;verticalAlign=middle;whiteSpace=wrap;rounded=0;" parent="1" vertex="1">
          <mxGeometry x="80" y="565" width="100" height="30" as="geometry" />
        </mxCell>
        <mxCell id="3s5oEH6HWSz2IYVChx12-41" value="" style="shape=curlyBracket;whiteSpace=wrap;html=1;rounded=1;labelPosition=left;verticalLabelPosition=middle;align=right;verticalAlign=middle;" parent="1" vertex="1">
          <mxGeometry x="190" y="160" width="20" height="280" as="geometry" />
        </mxCell>
        <mxCell id="3s5oEH6HWSz2IYVChx12-42" value="Header" style="text;html=1;strokeColor=none;fillColor=none;align=center;verticalAlign=middle;whiteSpace=wrap;rounded=0;" parent="1" vertex="1">
          <mxGeometry x="120" y="285" width="60" height="30" as="geometry" />
        </mxCell>
      </root>
    </mxGraphModel>
  </diagram>
</mxfile>
